 <svg xmlns="http://www.w3.org/2000/svg" width="171.0" height="88.0" viewBox="0 0 171.0 88.0">
   <defs>
    <linearGradient id="Gradient0"  x1="0.0968" y1="0.1656" x2="0.6188" y2="0.2175">
      <stop offset="1%" stop-color="#808080" />
      <stop offset="100%" stop-color="#232323" />
    </linearGradient>
    <linearGradient id="Gradient1"  x1="0.5" y1="0.1656" x2="0.9" y2="0.2175" >
      <stop offset="1%" stop-color="#232323" />
      <stop offset="100%" stop-color="#808080" />
    </linearGradient>
    <linearGradient id="Gradient2"  x1="0.855" y1="0.5" x2="0.855" y2="0.9">
      <stop offset="1%" stop-color="#808080" />
      <stop offset="100%" stop-color="#181818" />
    </linearGradient>
    <linearGradient id="Gradient3" x1="0.855" y1="0.2" x2="0.855" y2="0.7">
      <stop offset="1%" stop-color="#808080" />
      <stop offset="1100%" stop-color="#181818" />
    </linearGradient>
    <linearGradient id="Gradient4" x1="0.855" y1="0.2" x2="0.855" y2="0.7">
      <stop offset="1%" stop-color="#808080" />
      <stop offset="100%" stop-color="#181818" />
    </linearGradient>

  </defs>
  <g>
    <path d="M58.19,64.82L56.45,61.01H46.41L44.67,64.82H41.07L49.61,47.86H53.23L61.79,64.82H58.19ZM47.43,58.83H55.43L51.42,50.12L47.43,58.83Z" fill="#000000ff"/>
    <path d="M78.91,58.98L81.91,64.82H78.13L75.69,59.92C75.38,59.32 75.14,58.9 74.98,58.66C74.82,58.4 74.55,58.18 74.16,57.98C73.78,57.78 73.29,57.67 72.69,57.67H67.49V64.82H64.08V47.86H74.32C76.06,47.86 77.49,48.23 78.61,48.98C79.75,49.72 80.31,50.94 80.31,52.64C80.31,54.81 79.26,56.28 77.14,57.05C77.82,57.39 78.41,58.04 78.91,58.98ZM73.58,50.07H67.49V55.46H73.58C75.83,55.46 76.95,54.56 76.95,52.76C76.95,50.97 75.83,50.07 73.58,50.07Z" fill="#000000ff"/>
    <path d="M107.69,47.86V64.82H104.42V50.67L97.51,64.82H94.44L87.52,50.67V64.82H84.23V47.86H89.16L95.99,61.91L102.78,47.86H107.69Z" fill="#000000ff"/>
    <path d="M129.99,47.86L121.63,58.16V64.82H118.24V58.14L109.95,47.86H113.86L119.93,55.95L126.08,47.86H129.99Z" fill="#000000ff"/>
    <path d="M19.82,85.74C18.2,87.14 15.75,87.85 12.46,87.85C9.17,87.85 6.72,87.14 5.11,85.74C3.5,84.33 2.7,82.11 2.7,79.07C2.7,76.04 3.5,73.81 5.11,72.39C6.72,70.97 9.17,70.26 12.46,70.26C15.77,70.26 18.22,70.97 19.83,72.39C21.43,73.81 22.24,76.04 22.24,79.07C22.24,82.11 21.43,84.33 19.82,85.74ZM7.63,83.96C8.65,85.03 10.26,85.56 12.46,85.56C14.67,85.56 16.29,85.03 17.3,83.96C18.32,82.88 18.83,81.25 18.83,79.06C18.83,76.86 18.32,75.22 17.3,74.15C16.29,73.07 14.67,72.53 12.46,72.53C10.26,72.53 8.65,73.07 7.63,74.15C6.62,75.22 6.11,76.86 6.11,79.06C6.11,81.25 6.62,82.88 7.63,83.96Z" fill="#000000ff"/>
    <path d="M39.95,72.83H28.54V78.03H39.49V80.24H28.54V87.53H25.16V70.57H39.95V72.83Z" fill="#000000ff"/>
    <path d="M59.33,70.57C62.18,70.57 64.34,71.22 65.81,72.53C67.29,73.84 68.03,76 68.03,79.02C68.03,82.11 67.3,84.29 65.84,85.59C64.37,86.88 62.2,87.53 59.33,87.53H49.41V70.57H59.33ZM59.03,85.24C61.08,85.24 62.53,84.77 63.37,83.81C64.21,82.85 64.63,81.26 64.63,79.04C64.63,76.81 64.21,75.22 63.37,74.27C62.53,73.32 61.09,72.85 59.03,72.85H52.82V85.24H59.03Z" fill="#000000ff"/>
    <path d="M85.67,81.69L88.66,87.53H84.89L82.44,82.63C82.14,82.03 81.9,81.61 81.73,81.37C81.58,81.11 81.3,80.89 80.92,80.69C80.53,80.49 80.04,80.38 79.44,80.38H74.25V87.53H70.84V70.57H81.07C82.81,70.57 84.24,70.94 85.37,71.69C86.5,72.43 87.07,73.65 87.07,75.35C87.07,77.52 86.01,78.99 83.89,79.76C84.58,80.1 85.17,80.75 85.67,81.69ZM80.34,72.78H74.25V78.17H80.34C82.58,78.17 83.71,77.27 83.71,75.47C83.71,73.68 82.58,72.78 80.34,72.78Z" fill="#000000ff"/>
    <path d="M106.98,85.74C105.37,87.14 102.92,87.85 99.63,87.85C96.34,87.85 93.89,87.14 92.27,85.74C90.67,84.33 89.86,82.11 89.86,79.07C89.86,76.04 90.67,73.81 92.27,72.39C93.89,70.97 96.34,70.26 99.63,70.26C102.93,70.26 105.39,70.97 106.99,72.39C108.6,73.81 109.4,76.04 109.4,79.07C109.4,82.11 108.6,84.33 106.98,85.74ZM94.8,83.96C95.81,85.03 97.42,85.56 99.63,85.56C101.84,85.56 103.45,85.03 104.47,83.96C105.48,82.88 105.99,81.25 105.99,79.06C105.99,76.86 105.48,75.22 104.47,74.15C103.45,73.07 101.84,72.53 99.63,72.53C97.42,72.53 95.81,73.07 94.8,74.15C93.78,75.22 93.28,76.86 93.28,79.06C93.28,81.25 93.78,82.88 94.8,83.96Z" fill="#000000ff"/>
    <path d="M127.33,70.57H130.63V87.53H126.59L115.51,74.35V87.53H112.22V70.57H116.02L127.33,84.13V70.57Z" fill="#000000ff"/>
    <path d="M137.74,85.28H150.1V87.53H134.36V70.57H149.64V72.83H137.74V77.7H149.18V79.88H137.74V85.28Z" fill="#000000ff"/>
    <path d="M159.8,87.85C157.03,87.85 154.95,87.45 153.57,86.65C152.19,85.85 151.48,84.56 151.43,82.78H154.82C154.82,84.65 156.55,85.57 160.01,85.56C161.71,85.56 162.98,85.34 163.84,84.89C164.71,84.43 165.14,83.67 165.14,82.61C165.14,81.01 163.82,80.11 161.17,79.92L158.26,79.7C157.82,79.67 157.47,79.64 157.21,79.6C156.94,79.57 156.55,79.51 156.04,79.41C155.53,79.32 155.12,79.21 154.8,79.08C154.47,78.95 154.1,78.76 153.67,78.52C153.26,78.27 152.93,78 152.68,77.7C152.45,77.39 152.24,77.01 152.07,76.54C151.9,76.07 151.82,75.55 151.82,74.98C151.82,71.83 154.57,70.26 160.09,70.26C162.67,70.26 164.65,70.61 166.02,71.31C167.4,72.02 168.11,73.17 168.14,74.79H164.73C164.73,73.93 164.34,73.32 163.56,72.97C162.78,72.62 161.61,72.44 160.06,72.44C156.82,72.44 155.2,73.23 155.2,74.81C155.2,75.17 155.25,75.48 155.36,75.75C155.48,76.01 155.66,76.23 155.89,76.4C156.13,76.56 156.36,76.71 156.58,76.82C156.81,76.94 157.09,77.03 157.43,77.1C157.77,77.16 158.03,77.2 158.23,77.23C158.44,77.25 158.69,77.27 159,77.29L162.09,77.55C166.4,77.98 168.55,79.66 168.55,82.58C168.55,86.09 165.63,87.85 159.8,87.85Z" fill="#000000ff"/>
    <path d="M9.92,13.2V5.44L4.25,1.89L0.94,13.72V16.56V18.92L61.88,21.76L78.41,28.86H92.59L109.12,21.76L170.05,18.92V16.56V13.72L166.75,1.89L161.08,5.44V13.2L112.43,10.41L101.09,2.84H69.91L58.57,10.41L9.92,13.2Z" fill="#000000ff"/>
    <path d="M10.86,4.92V12.2L58.26,9.48L69.63,1.89H101.38L112.74,9.48L160.13,12.2V4.92L167.32,0.42L171,13.59V19.83L109.33,22.7L92.78,29.81H78.22L61.67,22.7L0,19.83V13.59L3.68,0.42L10.86,4.92ZM61.88,21.76L78.41,28.86H92.59L109.12,21.76L170.05,18.92V13.72L166.75,1.89L161.08,5.44V13.2L112.43,10.41L101.09,2.84H69.91L58.57,10.41L9.92,13.2V5.44L4.25,1.89L0.94,13.72V18.92L61.88,21.76Z" fill="#818181ff"/>
    <path d="M0.94,18.92L9.92,16.56H60.46L61.88,21.76L0.94,18.92Z" fill="url(#Gradient0)"/>
    <path d="M170.06,18.92L161.08,16.56H110.54L109.12,21.76L170.06,18.92Z" fill="url(#Gradient1)"/>
    <path d="M77,16.56H94L92.59,28.86H78.41L77,16.56Z" fill="url(#Gradient2)"/>
    <path d="M77,16.56L69.91,2.84L58.57,10.41L77,16.56Z" fill="url(#Gradient3)"/>
    <path d="M94,16.56L101.09,2.84L112.43,10.41L94,16.56Z" fill="url(#Gradient4)"/>
    <path d="M64.24,12.3L77,16.56L75.58,13.72L67.08,10.88L64.24,12.3Z" fill="#1de16bff"/>
    <path d="M106.76,12.3L94,16.56L95.42,13.72L103.92,10.88L106.76,12.3Z" fill="#1de16bff"/>
  </g>
</svg>