<?xml version="1.0" encoding="utf-8"?>
<!-- Generator: Adobe Illustrator 24.3.0, SVG Export Plug-In . SVG Version: 6.00 Build 0)  -->
<svg version="1.1" id="Слой_1" xmlns="http://www.w3.org/2000/svg" xmlns:xlink="http://www.w3.org/1999/xlink" x="0px" y="0px"
	 viewBox="0 0 120 120" style="enable-background:new 0 0 120 120;" xml:space="preserve">
<style type="text/css">
	.st0{display:none;}
	.st1{display:inline;}
	.st2{display:inline;fill:#FFFFFF;}
	.st3{fill:#009245;}
	.st4{fill:none;stroke:#FFFFFF;stroke-width:6;stroke-linecap:round;stroke-linejoin:round;}
	.st5{fill:none;stroke:#FFFFFF;stroke-width:6;stroke-linecap:round;}
</style>
<g class="st0">
	<circle class="st1" cx="60" cy="60" r="57.9"/>
	<path class="st2" d="M86.4,59.3c-0.2-1-1.2-1.7-2.2-1.7H69.8l9.4-28.2c0.2-1,0-2.2-1-2.7c-1-0.7-1.9-0.5-2.9,0l-41,31.4
		c-0.7,0.7-1.2,1.7-0.7,2.7c0.5,1,1.4,1.7,2.4,1.7h14.5l-9.4,28.2c-0.2,1,0,2.2,1,2.7c0.2,0.2,0.7,0.5,1.2,0.5s1-0.2,1.4-0.5
		l41-31.4C86.4,61.2,86.9,60.2,86.4,59.3z"/>
</g>
<g class="st0">
	<circle class="st1" cx="60" cy="60" r="57.9"/>
	<path class="st2" d="M88.3,25.1c-0.7-0.4-1.6-0.3-2.2,0.1c-6.4,4.4-10.7,11.4-11.8,19.2l-2.1,15.2l0,0.1c-0.3,1.2,0.5,2.3,1.6,2.6
		c2,0.4,3.4,2.3,3.4,4.3c-0.1,2.3-2.1,4.2-4.5,4.2h-2.2c-0.4,0-0.7,0-1.1,0.1c-0.1-0.1-0.1-0.3-0.2-0.4L67.5,67
		c-3.5-6.8-5.3-14.4-5.3-22v-28c0-1.2-1-2.2-2.2-2.2s-2.2,1-2.2,2.2v28c0,7.6-1.8,15.2-5.3,22l-1.8,3.5c-0.1,0.1-0.1,0.3-0.2,0.4
		c-0.4,0-0.7-0.1-1.1-0.1h-2.2c-2.5,0-4.5-1.9-4.6-4.2c-0.1-2.1,1.4-3.9,3.4-4.3c1.2-0.3,1.9-1.4,1.6-2.6l-2.1-15.3
		c-1-7.7-5.3-14.7-11.8-19.2c-0.7-0.5-1.5-0.5-2.2-0.1c-0.7,0.4-1.1,1.1-1.1,1.9v56.7c0,1.2,1,2.2,2.2,2.2h8.6c1.2,0,2.2-1,2.2-2.2
		c0-1.2-1-2.2-2.2-2.2h-6.5V31.6c3.5,3.6,5.9,8.3,6.6,13.4l1.9,13.7c-3,1.4-4.9,4.5-4.8,7.9c0.1,4.6,4.1,8.4,8.9,8.4H49
		c-1.7,6.3-0.8,13.1,2.7,18.7l6.5,10.5c0.4,0.6,1.1,1,1.8,1s1.4-0.4,1.8-1l6.5-10.5c3.5-5.6,4.4-12.4,2.7-18.7h1.6
		c4.8,0,8.7-3.8,8.9-8.4c0.1-3.4-1.9-6.5-4.8-7.9L78.6,45c0.7-5.1,3-9.8,6.6-13.4v49.9h-7.2c-1.2,0-2.2,1-2.2,2.2
		c0,1.2,1,2.2,2.2,2.2h9.3c1.2,0,2.2-1,2.2-2.2V27C89.4,26.2,89,25.5,88.3,25.1z M56.4,68.9c1.5-2.9,2.7-6,3.6-9.1
		c0.9,3.1,2.1,6.2,3.6,9.1l1.6,3c-2.1,1-3.9,2.5-5.2,4.4c-1.3-1.9-3.1-3.4-5.2-4.4L56.4,68.9z M64.7,91.5L60,99l-4.7-7.5
		c-2.9-4.7-3.6-10.3-2.2-15.5c2.8,1.4,4.7,4.2,4.7,7.5v4.3c0,1.2,1,2.2,2.2,2.2s2.2-1,2.2-2.2v-4.3c0-3.3,1.9-6.1,4.7-7.5
		C68.3,81.1,67.5,86.8,64.7,91.5z"/>
</g>
<g>
	<circle cx="60" cy="60" r="57.9"/>
	<path class="st3" d="M60,2.1V60h57.9c0,0,0,0,0,0C117.9,28,92,2.1,60,2.1z"/>
	<g>
		<path class="st4" d="M60,105.9c25.3,0,45.9-20.5,45.9-45.9S85.3,14.1,60,14.1S14.1,34.7,14.1,60S34.7,105.9,60,105.9z"/>
		<path class="st4" d="M60,82.9c12.7,0,22.9-10.3,22.9-22.9S72.7,37.1,60,37.1S37.1,47.3,37.1,60S47.3,82.9,60,82.9z"/>
		<path class="st4" d="M60,14.1v91.7"/>
		<path class="st5" d="M14.1,60l32.1,0"/>
		<path class="st4" d="M14.1,60h91.7"/>
	</g>
</g>
</svg>
