<?xml version="1.0" ?>
<svg xmlns="http://www.w3.org/2000/svg" width="32.0" height="32.0" viewBox="0 0 32.0 32.0">
  <path d="M16,16m-15,0a15,15 0,1 1,30 0a15,15 0,1 1,-30 0" fill="#000000ff"/>
  <path d="M11,16.884C11,17.053 11.059,17.196 11.179,17.311C11.298,17.427 11.443,17.484 11.614,17.484H15.386L13.377,23.006C13.281,23.291 13.292,23.526 13.411,23.711C13.53,23.896 13.697,23.992 13.913,24C14.136,24.007 14.337,23.896 14.516,23.665L20.799,15.636C20.933,15.451 21,15.278 21,15.116C21,14.947 20.941,14.804 20.821,14.689C20.702,14.573 20.557,14.516 20.386,14.516H16.614L18.634,8.994C18.738,8.701 18.727,8.466 18.6,8.289C18.481,8.104 18.314,8.008 18.098,8C17.882,7.993 17.678,8.104 17.484,8.335L11.212,16.352C11.071,16.537 11,16.714 11,16.884Z" fill="#ecf3eeff"/>
</svg>
